<mxfile host="app.diagrams.net" modified="2023-09-10T23:27:47.380Z" agent="Mozilla/5.0 (Windows NT 10.0; Win64; x64) AppleWebKit/537.36 (KHTML, like Gecko) Chrome/116.0.0.0 Safari/537.36" version="21.7.4" etag="_YqE9366vwNMk1WHcdRk" type="github">
  <diagram name="PÃ¡gina-1" id="H0cYYr46TFEzd312owUq">
    <mxGraphModel>
      <root>
        <mxCell id="0" />
        <mxCell id="1" parent="0" />
      </root>
    </mxGraphModel>
  </diagram>
</mxfile>
